<mxfile host="app.diagrams.net" agent="Mozilla/5.0 (Windows NT 10.0; Win64; x64) AppleWebKit/537.36 (KHTML, like Gecko) Chrome/131.0.0.0 Safari/537.36" version="24.9.3">
  <diagram id="C5RBs43oDa-KdzZeNtuy" name="Page-1">
    <mxGraphModel dx="1050" dy="522" grid="1" gridSize="10" guides="1" tooltips="1" connect="1" arrows="1" fold="1" page="1" pageScale="1" pageWidth="827" pageHeight="1169" math="0" shadow="0">
      <root>
        <mxCell id="WIyWlLk6GJQsqaUBKTNV-0" />
        <mxCell id="WIyWlLk6GJQsqaUBKTNV-1" parent="WIyWlLk6GJQsqaUBKTNV-0" />
        <mxCell id="NaT2pahWK82kNTzrgSdZ-2" value="" style="edgeStyle=orthogonalEdgeStyle;rounded=0;orthogonalLoop=1;jettySize=auto;html=1;" edge="1" parent="WIyWlLk6GJQsqaUBKTNV-1" source="NaT2pahWK82kNTzrgSdZ-0" target="NaT2pahWK82kNTzrgSdZ-1">
          <mxGeometry relative="1" as="geometry" />
        </mxCell>
        <mxCell id="NaT2pahWK82kNTzrgSdZ-0" value="Inicio" style="ellipse;whiteSpace=wrap;html=1;aspect=fixed;" vertex="1" parent="WIyWlLk6GJQsqaUBKTNV-1">
          <mxGeometry x="380" y="420" width="80" height="80" as="geometry" />
        </mxCell>
        <mxCell id="NaT2pahWK82kNTzrgSdZ-4" value="" style="edgeStyle=orthogonalEdgeStyle;rounded=0;orthogonalLoop=1;jettySize=auto;html=1;" edge="1" parent="WIyWlLk6GJQsqaUBKTNV-1" source="NaT2pahWK82kNTzrgSdZ-1" target="NaT2pahWK82kNTzrgSdZ-3">
          <mxGeometry relative="1" as="geometry" />
        </mxCell>
        <mxCell id="NaT2pahWK82kNTzrgSdZ-1" value="Mostrar mensaje: &quot;Por favor, ingrese una palabra: &quot;&amp;nbsp;" style="shape=parallelogram;perimeter=parallelogramPerimeter;fixedSize=1;rounded=0;shadow=0;html=1;whiteSpace=wrap;fillColor=#fff2cc;strokeColor=#d6b656;" vertex="1" parent="WIyWlLk6GJQsqaUBKTNV-1">
          <mxGeometry x="322.5" y="540" width="195" height="80" as="geometry" />
        </mxCell>
        <mxCell id="NaT2pahWK82kNTzrgSdZ-6" value="" style="edgeStyle=orthogonalEdgeStyle;rounded=0;orthogonalLoop=1;jettySize=auto;html=1;" edge="1" parent="WIyWlLk6GJQsqaUBKTNV-1" source="NaT2pahWK82kNTzrgSdZ-3" target="NaT2pahWK82kNTzrgSdZ-5">
          <mxGeometry relative="1" as="geometry" />
        </mxCell>
        <mxCell id="NaT2pahWK82kNTzrgSdZ-3" value="Definir la variable cantidad_letras y asignarle la Logitud de palabra_ingresada" style="rounded=1;whiteSpace=wrap;html=1;fillColor=#dae8fc;strokeColor=#6c8ebf;shadow=0;" vertex="1" parent="WIyWlLk6GJQsqaUBKTNV-1">
          <mxGeometry x="335" y="680" width="170" height="100" as="geometry" />
        </mxCell>
        <mxCell id="NaT2pahWK82kNTzrgSdZ-11" value="" style="edgeStyle=orthogonalEdgeStyle;rounded=0;orthogonalLoop=1;jettySize=auto;html=1;" edge="1" parent="WIyWlLk6GJQsqaUBKTNV-1" source="NaT2pahWK82kNTzrgSdZ-5" target="NaT2pahWK82kNTzrgSdZ-10">
          <mxGeometry relative="1" as="geometry" />
        </mxCell>
        <mxCell id="NaT2pahWK82kNTzrgSdZ-5" value="Mostrar mensaje: &quot;La palabra ingresada tiene&quot;, cantidad_letras. &quot;letras&quot;" style="shape=parallelogram;perimeter=parallelogramPerimeter;whiteSpace=wrap;html=1;fixedSize=1;fillColor=#fff2cc;strokeColor=#d6b656;rounded=0;shadow=0;" vertex="1" parent="WIyWlLk6GJQsqaUBKTNV-1">
          <mxGeometry x="315" y="830" width="210" height="110" as="geometry" />
        </mxCell>
        <mxCell id="NaT2pahWK82kNTzrgSdZ-10" value="Fin" style="ellipse;whiteSpace=wrap;html=1;rounded=0;shadow=0;" vertex="1" parent="WIyWlLk6GJQsqaUBKTNV-1">
          <mxGeometry x="380" y="1035" width="80" height="80" as="geometry" />
        </mxCell>
      </root>
    </mxGraphModel>
  </diagram>
</mxfile>
